<svg width="118" height="24" viewBox="0 0 118 24" fill="none" xmlns="http://www.w3.org/2000/svg">
<path d="M7.512 21.288C6.184 21.288 4.896 21.112 3.648 20.76C2.416 20.392 1.424 19.92 0.672 19.344L1.992 16.416C2.712 16.944 3.568 17.368 4.56 17.688C5.552 18.008 6.544 18.168 7.536 18.168C8.64 18.168 9.456 18.008 9.984 17.688C10.512 17.352 10.776 16.912 10.776 16.368C10.776 15.968 10.616 15.64 10.296 15.384C9.992 15.112 9.592 14.896 9.096 14.736C8.616 14.576 7.96 14.4 7.128 14.208C5.848 13.904 4.8 13.6 3.984 13.296C3.168 12.992 2.464 12.504 1.872 11.832C1.296 11.16 1.008 10.264 1.008 9.144C1.008 8.168 1.272 7.288 1.8 6.504C2.328 5.704 3.12 5.072 4.176 4.608C5.248 4.144 6.552 3.912 8.088 3.912C9.16 3.912 10.208 4.04 11.232 4.296C12.256 4.552 13.152 4.92 13.92 5.4L12.72 8.352C11.168 7.472 9.616 7.032 8.064 7.032C6.976 7.032 6.168 7.208 5.64 7.56C5.128 7.912 4.872 8.376 4.872 8.952C4.872 9.528 5.168 9.96 5.76 10.248C6.368 10.52 7.288 10.792 8.52 11.064C9.8 11.368 10.848 11.672 11.664 11.976C12.48 12.28 13.176 12.76 13.752 13.416C14.344 14.072 14.64 14.96 14.64 16.08C14.64 17.04 14.368 17.92 13.824 18.72C13.296 19.504 12.496 20.128 11.424 20.592C10.352 21.056 9.048 21.288 7.512 21.288ZM24.5687 4.2C26.0567 4.2 27.3447 4.448 28.4327 4.944C29.5367 5.44 30.3847 6.144 30.9767 7.056C31.5687 7.968 31.8647 9.048 31.8647 10.296C31.8647 11.528 31.5687 12.608 30.9767 13.536C30.3847 14.448 29.5367 15.152 28.4327 15.648C27.3447 16.128 26.0567 16.368 24.5687 16.368H21.1847V21H17.2967V4.2H24.5687ZM24.3527 13.2C25.5207 13.2 26.4087 12.952 27.0167 12.456C27.6247 11.944 27.9287 11.224 27.9287 10.296C27.9287 9.352 27.6247 8.632 27.0167 8.136C26.4087 7.624 25.5207 7.368 24.3527 7.368H21.1847V13.2H24.3527ZM44.8607 17.4H37.0607L35.5727 21H31.5887L39.0767 4.2H42.9167L50.4287 21H46.3487L44.8607 17.4ZM43.6367 14.448L40.9727 8.016L38.3087 14.448H43.6367ZM62.8757 21L59.6357 16.32H59.4437H56.0597V21H52.1717V4.2H59.4437C60.9317 4.2 62.2197 4.448 63.3077 4.944C64.4117 5.44 65.2597 6.144 65.8517 7.056C66.4437 7.968 66.7397 9.048 66.7397 10.296C66.7397 11.544 66.4357 12.624 65.8277 13.536C65.2357 14.432 64.3877 15.12 63.2837 15.6L67.0517 21H62.8757ZM62.8037 10.296C62.8037 9.352 62.4997 8.632 61.8917 8.136C61.2837 7.624 60.3957 7.368 59.2277 7.368H56.0597V13.224H59.2277C60.3957 13.224 61.2837 12.968 61.8917 12.456C62.4997 11.944 62.8037 11.224 62.8037 10.296ZM73.0658 7.368H67.6898V4.2H82.3298V7.368H76.9538V21H73.0658V7.368ZM94.6419 17.4H86.8419L85.3539 21H81.3699L88.8579 4.2H92.6979L100.21 21H96.1299L94.6419 17.4ZM93.4179 14.448L90.7539 8.016L88.0899 14.448H93.4179Z" fill="#131316"/>
<path d="M112.537 21L108.481 15.168L104.497 21H100.033L106.249 12.456L100.345 4.2H104.761L108.625 9.648L112.417 4.2H116.617L110.761 12.312L117.025 21H112.537Z" fill="#FB5733"/>
</svg>
